<svg width="150" height="120" viewBox="0 0 150 120" fill="none" xmlns="http://www.w3.org/2000/svg">
<g clip-path="url(#clip0_32_169)">
<path d="M89.2329 10.7258C108.717 10.7258 124.511 26.5205 124.511 46.0042L124.5 46.8918C136.676 50.0169 145.678 61.0705 145.678 74.2268C145.678 89.3414 133.796 101.681 118.864 102.415L117.456 102.449H39.8433L39.8462 102.291C20.0662 100.51 4.56519 83.8874 4.56494 63.6438C4.56494 42.2119 21.9388 24.8374 43.3706 24.8372C48.8784 24.8372 54.119 25.9841 58.8647 28.053C64.9999 17.6806 76.3042 10.7258 89.2329 10.7258ZM89.7007 38.637C89.4151 38.415 89.145 38.4148 88.8911 38.637C88.6689 38.9226 88.4473 39.2087 88.2251 39.4944C88.0347 39.78 87.8281 40.0975 87.606 40.4465C84.6532 43.5263 81.4457 46.7973 77.9849 50.2581L67.5552 60.6877C68.6664 58.9098 69.8887 57.0843 71.2222 55.2112C72.5874 53.3062 74.159 51.2735 75.937 49.1145C76.445 48.5113 76.747 47.8447 76.8423 47.1145C76.9693 46.3525 76.9693 45.5903 76.8423 44.8284C76.747 44.0665 76.5406 43.3363 76.2231 42.6379C75.9374 41.9077 75.6193 41.2885 75.27 40.7805C74.9209 40.241 74.5723 39.828 74.2231 39.5422C73.9056 39.2565 73.651 39.1457 73.4604 39.2092H73.27C69.5236 40.2887 66.0149 41.6539 62.7446 43.3049C59.4746 44.9558 56.5062 46.7814 53.8394 48.7815C51.1724 50.75 48.8225 52.7978 46.7905 54.925C44.7586 57.0205 43.0913 59.0684 41.7896 61.0686C40.4878 63.0371 39.5988 64.8795 39.1226 66.594C38.6465 68.2763 38.6143 69.6572 39.0269 70.7366C39.1221 71.0541 39.3607 71.4195 39.7417 71.8323C40.1545 72.245 40.6307 72.6739 41.1704 73.1184C41.7418 73.5311 42.329 73.9279 42.9321 74.3088C43.5671 74.6581 44.139 74.9279 44.647 75.1184C45.1548 75.3088 45.5517 75.3883 45.8374 75.3567C46.1549 75.2932 46.2827 75.0546 46.2192 74.6418C46.0606 73.6576 46.1713 72.4352 46.5522 70.9749C46.965 69.4827 47.6003 67.8636 48.4575 66.1174C49.3465 64.3712 50.457 62.561 51.7905 60.6877C53.124 58.8145 54.6484 56.9891 56.3628 55.2112C58.0773 53.4332 59.967 51.7821 62.0308 50.2581C64.0945 48.7023 66.3014 47.3844 68.6509 46.3049C65.1901 51.512 61.9353 56.6243 58.8872 61.6409C55.8393 66.6255 53.0766 71.5781 50.6001 76.4993C50.6318 77.6105 50.8544 78.8015 51.2671 80.0715C51.7116 81.3098 52.22 82.3891 52.7915 83.3098C53.3948 84.2306 53.9978 84.8346 54.6011 85.1204C55.2042 85.4376 55.6967 85.183 56.0776 84.3577C56.6173 83.2465 57.1088 82.1509 57.5532 81.0715C58.0295 79.9921 58.4906 78.9288 58.9351 77.8811C60.1733 75.7538 61.6019 73.5782 63.2212 71.3557C64.8404 69.1333 66.5551 66.9111 68.3647 64.6887C70.2063 62.4662 72.095 60.2906 74.0317 58.1633C76.0003 56.0361 77.9373 53.9883 79.8423 52.0198C78.2231 54.6232 76.6041 57.3698 74.9849 60.259C73.3656 63.1166 71.8887 66.006 70.5552 68.927C69.2534 71.8163 68.1581 74.6744 67.269 77.5002C66.3801 80.2941 65.8243 82.9292 65.6021 85.4055C65.5703 85.6913 65.6659 86.1201 65.8882 86.6917C66.1422 87.2631 66.539 87.8663 67.0786 88.5012C67.6501 89.1362 68.3649 89.7554 69.2222 90.3586C70.1111 90.9619 71.1744 91.4703 72.4126 91.8831C73.3651 92.2006 73.9691 92.3435 74.2231 92.3118C74.5084 92.3116 74.6194 92.1845 74.5562 91.9309C74.5244 91.6769 74.4136 91.2953 74.2231 90.7874C74.0327 90.2794 73.9531 89.6762 73.9849 88.9778C74.1436 85.771 74.5876 82.6752 75.3179 79.6907C76.0481 76.6744 76.9371 73.785 77.9849 71.0227C79.0644 68.2604 80.2393 65.6408 81.5093 63.1643C82.811 60.6879 84.0968 58.3862 85.3667 56.259C86.6685 54.1318 87.9068 52.1786 89.0815 50.4006C90.2881 48.5909 91.32 47.0032 92.1772 45.6379C92.3042 45.4792 92.3525 45.162 92.3208 44.6858C92.2891 44.2096 92.1934 43.6698 92.0347 43.0667C91.8759 42.4635 91.6695 41.8602 91.4155 41.2571C91.1615 40.6221 90.8917 40.0815 90.606 39.637C90.3203 39.1609 90.0181 38.8274 89.7007 38.637ZM104.681 61.259C104.268 60.9098 103.776 60.7991 103.205 60.926C102.919 61.0213 102.537 61.275 102.061 61.6877C101.585 62.1005 101.077 62.609 100.538 63.2122C99.9979 63.8154 99.4421 64.482 98.8706 65.2122C98.3309 65.9106 97.8073 66.6094 97.2993 67.3079C96.8231 67.9746 96.3942 68.5938 96.0132 69.1653C95.6639 69.7368 95.4253 70.1657 95.2983 70.4514L95.0132 71.1653C94.1559 72.3083 93.2982 73.4359 92.4409 74.5471C91.6154 75.6583 90.8533 76.6269 90.1548 77.4524C89.4565 78.2776 88.8692 78.9283 88.3931 79.4045C87.9168 79.849 87.6148 79.9759 87.4878 79.7854C87.3612 79.6264 87.4406 79.1981 87.7261 78.5002C88.0436 77.77 88.4563 76.9122 88.9644 75.928C89.4723 74.912 90.0442 73.8487 90.6792 72.7375C91.3142 71.5945 91.9012 70.5304 92.4409 69.5461C92.9807 68.5619 93.4257 67.7202 93.7749 67.0217C94.1557 66.2919 94.3461 65.8475 94.3462 65.6887C94.3144 65.276 94.0758 64.7524 93.6313 64.1174C93.2186 63.4824 92.7424 62.9106 92.2026 62.4026C91.6629 61.8629 91.1393 61.45 90.6313 61.1643C90.1553 60.8787 89.838 60.8628 89.6792 61.1165C89.5205 61.307 89.2023 61.7832 88.7261 62.5452C88.2498 63.3071 87.6941 64.2596 87.0591 65.4026C86.4241 66.5138 85.7576 67.7683 85.0591 69.1653C84.3923 70.5306 83.7732 71.9118 83.2017 73.3088C82.6302 74.7057 82.1539 76.055 81.7729 77.3567C81.4237 78.6585 81.2646 79.8021 81.2964 80.7864C81.2965 81.2307 81.4394 81.6438 81.7251 82.0247C82.0108 82.3738 82.3442 82.7072 82.7251 83.0247C83.1379 83.3104 83.5828 83.548 84.0591 83.7385C84.5353 83.929 84.9642 84.0559 85.3452 84.1194C85.9801 84.2145 86.6942 84.0243 87.4878 83.5481C88.2816 83.0401 89.1232 82.3575 90.0122 81.5002C90.9012 80.6113 91.8063 79.5954 92.7271 78.4524C93.6478 77.3094 94.5368 76.1345 95.394 74.928C95.8067 75.6581 96.3779 76.2613 97.1079 76.7375C97.8382 77.1821 98.712 77.3733 99.728 77.3098C100.141 77.3097 100.601 77.1346 101.109 76.7854C101.649 76.4044 102.094 76.1024 102.443 75.8801C103.554 75.1182 104.554 74.2451 105.443 73.261C106.364 72.2768 107.237 71.2608 108.062 70.2131L109.3 68.5461L110.491 66.9749C110.586 66.6891 110.602 66.4344 110.539 66.2122C110.475 65.9584 110.348 65.7839 110.158 65.6887C109.999 65.5617 109.793 65.5144 109.539 65.5461C109.316 65.5462 109.094 65.6408 108.872 65.8313L107.681 67.3079C107.205 67.8793 106.681 68.4986 106.11 69.1653C105.538 69.8003 104.95 70.4194 104.347 71.0227C103.776 71.6258 103.205 72.1657 102.633 72.6418C102.094 73.0862 101.617 73.4196 101.205 73.6418C100.76 73.8959 100.617 73.8324 100.776 73.4514C100.935 73.0705 101.236 72.5466 101.68 71.8801C102.125 71.1816 102.649 70.4034 103.252 69.5461C103.856 68.6891 104.395 67.9115 104.872 67.2131C105.38 66.4194 105.681 65.6251 105.776 64.8313C105.903 64.006 105.855 63.2919 105.633 62.6887C105.443 62.0537 105.126 61.5765 104.681 61.259Z" fill="#2774E6"/>
</g>
<defs>
<clipPath id="clip0_32_169">
<rect width="150" height="150" fill="white"/>
</clipPath>
</defs>
</svg>
