<svg width="715" height="703" viewBox="0 0 715 703" fill="none" xmlns="http://www.w3.org/2000/svg">
<g opacity="0.5" clip-path="url(#clip0_18_194)">
<path fill-rule="evenodd" clip-rule="evenodd" d="M727.6 0C876.855 0 997.85 121.055 997.85 270.385L997.766 277.187C1091.04 301.138 1160 385.858 1160 486.692C1160 602.536 1068.98 697.11 954.591 702.735L943.8 703H349.25L349.271 701.789C197.745 688.139 79 560.732 79 405.577C79 241.315 212.095 108.154 376.275 108.154C418.467 108.154 458.606 116.948 494.961 132.804C541.96 53.3048 628.558 0 727.6 0Z" fill="url(#paint0_linear_18_194)"/>
<path fill-rule="evenodd" clip-rule="evenodd" d="M233.6 323C152.966 323 87.6 388.435 87.6 469.154L87.6453 472.831C37.2558 485.777 0 531.572 0 586.077C0 648.695 49.1719 699.816 110.971 702.857L116.8 703H438L437.989 702.346C519.849 694.967 584 626.098 584 542.231C584 453.44 512.097 381.462 423.4 381.462C400.606 381.462 378.921 386.215 359.281 394.786C333.89 351.813 287.107 323 233.6 323Z" fill="url(#paint1_linear_18_194)"/>
<path fill-rule="evenodd" clip-rule="evenodd" d="M496 482C542.944 482 581 520.056 581 567L580.974 569.138C610.31 576.668 632 603.301 632 635C632 671.417 603.373 701.148 567.394 702.917L564 703H377L377.007 702.619C329.348 698.328 292 658.276 292 609.5C292 557.861 333.861 516 385.5 516C398.77 516 411.395 518.765 422.83 523.749C437.612 498.757 464.849 482 496 482Z" fill="url(#paint2_linear_18_194)"/>
</g>
<defs>
<linearGradient id="paint0_linear_18_194" x1="619.5" y1="0" x2="619.5" y2="703" gradientUnits="userSpaceOnUse">
<stop stop-color="#2774E6"/>
<stop offset="1" stop-color="white" stop-opacity="0"/>
</linearGradient>
<linearGradient id="paint1_linear_18_194" x1="292" y1="323" x2="292" y2="703" gradientUnits="userSpaceOnUse">
<stop stop-color="#2774E6"/>
<stop offset="1" stop-color="white" stop-opacity="0"/>
</linearGradient>
<linearGradient id="paint2_linear_18_194" x1="462" y1="482" x2="462" y2="703" gradientUnits="userSpaceOnUse">
<stop stop-color="#2774E6"/>
<stop offset="1" stop-color="white" stop-opacity="0"/>
</linearGradient>
<clipPath id="clip0_18_194">
<rect width="715" height="703" fill="white"/>
</clipPath>
</defs>
</svg>
