<svg width="440" height="488" viewBox="0 0 440 488" fill="none" xmlns="http://www.w3.org/2000/svg">
<g opacity="0.5" clip-path="url(#clip0_32_121)">
<path fill-rule="evenodd" clip-rule="evenodd" d="M-12.6 0C-161.855 0 -282.85 121.055 -282.85 270.385L-282.766 277.187C-376.039 301.138 -445 385.858 -445 486.692C-445 602.536 -353.982 697.11 -239.591 702.735L-228.8 703H365.75L365.729 701.789C517.255 688.139 636 560.732 636 405.577C636 241.315 502.905 108.154 338.725 108.154C296.533 108.154 256.394 116.948 220.039 132.804C173.04 53.3048 86.4421 0 -12.6 0Z" fill="url(#paint0_linear_32_121)"/>
<path fill-rule="evenodd" clip-rule="evenodd" d="M481.4 121C562.034 121 627.4 186.435 627.4 267.154L627.355 270.831C677.744 283.777 715 329.572 715 384.077C715 446.695 665.828 497.816 604.029 500.857L598.2 501H277L277.011 500.346C195.151 492.967 131 424.098 131 340.231C131 251.44 202.903 179.462 291.6 179.462C314.394 179.462 336.079 184.215 355.719 192.786C381.11 149.813 427.893 121 481.4 121Z" fill="url(#paint1_linear_32_121)"/>
<path fill-rule="evenodd" clip-rule="evenodd" d="M59 280C12.0558 280 -26 318.056 -26 365L-25.9736 367.138C-55.31 374.668 -77 401.301 -77 433C-77 469.417 -48.3725 499.148 -12.3939 500.917L-9 501H178L177.993 500.619C225.652 496.328 263 456.276 263 407.5C263 355.861 221.139 314 169.5 314C156.23 314 143.605 316.765 132.17 321.749C117.388 296.757 90.1511 280 59 280Z" fill="url(#paint2_linear_32_121)"/>
</g>
<defs>
<linearGradient id="paint0_linear_32_121" x1="95.5" y1="0" x2="95.5" y2="703" gradientUnits="userSpaceOnUse">
<stop stop-color="#2774E6"/>
<stop offset="1" stop-color="white" stop-opacity="0"/>
</linearGradient>
<linearGradient id="paint1_linear_32_121" x1="423" y1="121" x2="423" y2="501" gradientUnits="userSpaceOnUse">
<stop stop-color="#2774E6"/>
<stop offset="1" stop-color="white" stop-opacity="0"/>
</linearGradient>
<linearGradient id="paint2_linear_32_121" x1="93" y1="280" x2="93" y2="501" gradientUnits="userSpaceOnUse">
<stop stop-color="#2774E6"/>
<stop offset="1" stop-color="white" stop-opacity="0"/>
</linearGradient>
<clipPath id="clip0_32_121">
<rect width="440" height="488" fill="white" transform="matrix(-1 0 0 1 440 0)"/>
</clipPath>
</defs>
</svg>
