<svg width="46" height="46" viewBox="0 0 46 46" fill="none" xmlns="http://www.w3.org/2000/svg">
<path d="M23.9893 20.6966C23.9893 19.9173 23.3574 19.2855 22.5781 19.2855C21.7988 19.2855 21.167 19.9173 21.167 20.6966V24.4596C21.167 25.239 21.7988 25.8708 22.5781 25.8708C23.3574 25.8708 23.9893 25.239 23.9893 24.4596V20.6966Z" fill="white"/>
<path fill-rule="evenodd" clip-rule="evenodd" d="M25.8232 3.81398L30.4024 4.57718C32.577 4.93957 34.3387 5.23317 35.7169 5.64345C37.1521 6.07074 38.3378 6.66932 39.2508 7.74703C40.1637 8.82472 40.5593 10.0928 40.7449 11.5787C40.9228 13.0056 40.9229 14.7916 40.9229 16.9961V28.16C40.9229 30.3646 40.9228 32.1507 40.7449 33.5774C40.5593 35.0634 40.1637 36.3314 39.2508 37.4091C38.3378 38.4868 37.1521 39.0854 35.7169 39.5126C34.3387 39.923 32.577 40.2165 30.4026 40.5789L25.8232 41.3422C23.8792 41.6662 22.272 41.9342 20.9882 41.9652C19.6418 41.9977 18.3936 41.7814 17.3522 40.8991C16.4731 40.1544 16.0377 39.1862 15.8095 38.1006H14.9511C12.8197 38.1006 11.0778 38.1006 9.70274 37.9158C8.26536 37.7226 7.01916 37.3043 6.02443 36.3096C5.02967 35.3148 4.61145 34.0687 4.4182 32.6312C4.23332 31.2562 4.23336 29.5143 4.2334 27.3829V17.7733C4.23336 15.6419 4.23332 13.9001 4.4182 12.525C4.61145 11.0876 5.02967 9.8414 6.02443 8.84666C7.01916 7.85191 8.26536 7.43369 9.70274 7.24044C11.0779 7.05556 12.8196 7.0556 14.9511 7.05563H15.8095C16.0377 5.96993 16.4731 5.00181 17.3522 4.25709C18.3936 3.37485 19.6418 3.15846 20.9882 3.19097C22.272 3.222 23.8794 3.48995 25.8232 3.81398ZM15.5225 32.6162C15.5224 33.587 15.5224 34.4751 15.544 35.2783H15.0521C12.7948 35.2783 11.2438 35.2753 10.0788 35.1188C8.95437 34.9675 8.40303 34.6969 8.02007 34.3138C7.63711 33.931 7.36647 33.3797 7.21529 32.2551C7.05868 31.0901 7.05567 29.5391 7.05567 27.2819V17.8743C7.05567 15.6171 7.05868 14.066 7.21529 12.901C7.36647 11.7766 7.63711 11.2253 8.02007 10.8423C8.40303 10.4593 8.95437 10.1887 10.0788 10.0375C11.2438 9.88091 12.7948 9.8779 15.0521 9.8779H15.544C15.5224 10.6811 15.5224 11.5692 15.5225 12.5401V32.6162ZM20.9201 6.01243C19.8998 5.98776 19.4657 6.16551 19.1764 6.41054C18.8872 6.65557 18.6405 7.05452 18.4971 8.06501C18.3481 9.11453 18.3447 10.542 18.3447 12.6472V32.5089C18.3447 34.6141 18.3481 36.0416 18.4971 37.0911C18.6405 38.1017 18.8872 38.5006 19.1764 38.7456C19.4657 38.9907 19.8998 39.1683 20.9201 39.1437C21.9798 39.1181 23.3885 38.8869 25.4649 38.5407L29.8466 37.8104C32.1349 37.4291 33.7219 37.1619 34.9116 36.8078C36.0633 36.4648 36.6727 36.0862 37.0974 35.5848C37.522 35.0836 37.7954 34.4203 37.9442 33.2278C38.098 31.9962 38.1006 30.3868 38.1006 28.0669V17.0893C38.1006 14.7693 38.098 13.16 37.9442 11.9284C37.7954 10.7359 37.522 10.0726 37.0974 9.57127C36.6727 9.06994 36.0633 8.69131 34.9116 8.34838C33.7219 7.99424 32.1349 7.72713 29.8466 7.34574L25.4649 6.61545C23.3885 6.26939 21.9798 6.03802 20.9201 6.01243Z" fill="white"/>
</svg>
