<svg width="72" height="72" viewBox="0 0 72 72" fill="none" xmlns="http://www.w3.org/2000/svg">
<g clip-path="url(#clip0_7_10)">
<path fill-rule="evenodd" clip-rule="evenodd" d="M60.531 23.2775C60.531 13.5356 52.6337 5.63831 42.8918 5.63831C36.4274 5.63831 30.7751 9.11576 27.7076 14.3021C25.3347 13.2677 22.7148 12.694 19.9609 12.694C9.24492 12.694 0.557861 21.381 0.557861 32.097C0.557861 42.2189 8.30835 50.5306 18.1984 51.4212L18.197 51.5001H57.0032L57.7075 51.4829C65.1737 51.1159 71.1145 44.9461 71.1145 37.3888C71.1145 30.8106 66.6134 25.2837 60.5255 23.7212L60.531 23.2775ZM43.126 19.594C42.9831 19.4829 42.8482 19.4829 42.7212 19.594L42.3878 20.0226C42.2926 20.1655 42.1894 20.3243 42.0782 20.4989C40.6018 22.0388 38.9984 23.6739 37.268 25.4043L32.053 30.6194C32.6087 29.7303 33.2199 28.8175 33.8866 27.8809C34.5692 26.9284 35.3551 25.9123 36.2441 24.8328C36.4981 24.5312 36.6489 24.1978 36.6965 23.8327C36.76 23.4517 36.76 23.0707 36.6965 22.6897C36.6489 22.3087 36.5457 21.9435 36.387 21.5943C36.2441 21.2291 36.0853 20.9196 35.9107 20.6656C35.7361 20.3957 35.5615 20.1893 35.3868 20.0464C35.2281 19.9036 35.1011 19.848 35.0058 19.8798H34.9106C33.0373 20.4195 31.2831 21.1021 29.6479 21.9277C28.0128 22.7532 26.5284 23.666 25.1949 24.6661C23.8614 25.6504 22.6866 26.6744 21.6706 27.738C20.6546 28.7858 19.8211 29.8097 19.1703 30.8099C18.5194 31.7941 18.0749 32.7149 17.8367 33.5721C17.5986 34.4135 17.5827 35.1041 17.7891 35.6439C17.8367 35.8026 17.9558 35.9852 18.1463 36.1916C18.3527 36.3979 18.5908 36.6123 18.8607 36.8345C19.1464 37.0409 19.4401 37.2393 19.7418 37.4298C20.0593 37.6045 20.345 37.7394 20.599 37.8347C20.853 37.9299 21.0515 37.9696 21.1944 37.9537C21.3531 37.922 21.4166 37.8029 21.3849 37.5965C21.3055 37.1044 21.361 36.4932 21.5515 35.7629C21.7579 35.0168 22.0754 34.2072 22.5041 33.334C22.9486 32.4609 23.5042 31.556 24.171 30.6194C24.8377 29.6827 25.5997 28.7699 26.457 27.8809C27.3143 26.9919 28.2588 26.1663 29.2907 25.4043C30.3226 24.6264 31.4259 23.9676 32.6007 23.4279C30.8703 26.0314 29.2431 28.5873 27.7191 31.0956C26.1951 33.588 24.8139 36.0646 23.5756 38.5252C23.5915 39.0809 23.7026 39.6762 23.909 40.3112C24.1313 40.9303 24.3853 41.4701 24.671 41.9305C24.9727 42.3908 25.2743 42.6925 25.5759 42.8354C25.8776 42.9941 26.1236 42.8671 26.3141 42.4543C26.584 41.8987 26.8301 41.351 27.0523 40.8113C27.2904 40.2715 27.5206 39.7397 27.7429 39.2158C28.362 38.1522 29.0764 37.0647 29.886 35.9534C30.6957 34.8422 31.553 33.7309 32.4578 32.6196C33.3786 31.5084 34.3232 30.4209 35.2916 29.3573C36.2758 28.2936 37.2442 27.2697 38.1967 26.2854C37.3871 27.5872 36.5775 28.9604 35.7678 30.405C34.9582 31.8338 34.22 33.2785 33.5532 34.739C32.9023 36.1836 32.3547 37.6124 31.9101 39.0253C31.4656 40.4223 31.1878 41.74 31.0767 42.9782C31.0608 43.1211 31.1084 43.3354 31.2196 43.6212C31.3466 43.9069 31.545 44.2086 31.8149 44.5261C32.1006 44.8436 32.4578 45.1531 32.8865 45.4548C33.331 45.7564 33.8628 46.0104 34.4819 46.2168C34.9582 46.3755 35.2598 46.447 35.3868 46.4311C35.5297 46.4311 35.5853 46.3676 35.5535 46.2406C35.5376 46.1136 35.4821 45.9231 35.3868 45.6691C35.2916 45.4151 35.2519 45.1135 35.2678 44.7642C35.3471 43.1608 35.5694 41.613 35.9345 40.1207C36.2996 38.6125 36.7442 37.1679 37.268 35.7867C37.8078 34.4056 38.3952 33.0959 39.0302 31.8576C39.6811 30.6194 40.324 29.4684 40.959 28.4048C41.6099 27.3411 42.2291 26.3648 42.8164 25.4758C43.4197 24.5709 43.9356 23.7771 44.3643 23.0945C44.4278 23.0151 44.4516 22.8564 44.4357 22.6182C44.4198 22.3801 44.3722 22.1102 44.2928 21.8086C44.2135 21.507 44.1103 21.2053 43.9833 20.9037C43.8563 20.5862 43.7213 20.3163 43.5784 20.0941C43.4356 19.8559 43.2848 19.6892 43.126 19.594ZM52.3066 35.3819L52.9257 34.5485L53.5211 33.7627C53.5687 33.6198 53.5766 33.4928 53.5449 33.3816C53.5131 33.2546 53.4496 33.1673 53.3544 33.1197C53.275 33.0562 53.1718 33.0324 53.0448 33.0483C52.9337 33.0483 52.8226 33.0959 52.7114 33.1911L52.1161 33.9293C51.878 34.2151 51.616 34.5247 51.3303 34.858C51.0445 35.1755 50.7508 35.4851 50.4492 35.7867C50.1635 36.0884 49.8777 36.3583 49.5919 36.5964C49.3221 36.8186 49.0839 36.9853 48.8776 37.0965C48.6553 37.2235 48.5839 37.1917 48.6632 37.0012C48.7426 36.8107 48.8934 36.5488 49.1157 36.2154C49.3379 35.8661 49.5999 35.4772 49.9015 35.0485C50.2031 34.6199 50.473 34.231 50.7111 33.8817C50.9651 33.4848 51.116 33.088 51.1636 32.6911C51.2271 32.2783 51.2033 31.9211 51.0922 31.6195C50.9969 31.302 50.8382 31.0639 50.6159 30.9051C50.4095 30.7305 50.1635 30.6749 49.8777 30.7384C49.7348 30.786 49.5443 30.913 49.3062 31.1194C49.0681 31.3258 48.8141 31.5798 48.5442 31.8814C48.2743 32.1831 47.9965 32.5164 47.7107 32.8816C47.4408 33.2308 47.1789 33.5801 46.9249 33.9293C46.6868 34.2627 46.4725 34.5723 46.282 34.858C46.1073 35.1438 45.9883 35.3581 45.9248 35.501L45.7819 35.8582C45.3533 36.4297 44.9246 36.9933 44.496 37.5489C44.0832 38.1045 43.7022 38.5887 43.353 39.0015C43.0037 39.4142 42.71 39.7397 42.4719 39.9778C42.2338 40.2001 42.083 40.2636 42.0195 40.1683C41.9559 40.0889 41.9956 39.8746 42.1385 39.5254C42.2973 39.1602 42.5036 38.7316 42.7576 38.2395C43.0117 37.7315 43.2974 37.1996 43.6149 36.644C43.9324 36.0725 44.2261 35.5407 44.496 35.0485C44.7659 34.5564 44.9881 34.1357 45.1628 33.7865C45.3533 33.4213 45.4485 33.1991 45.4485 33.1197C45.4326 32.9133 45.3136 32.6514 45.0913 32.3339C44.8849 32.0164 44.6468 31.7306 44.3769 31.4766C44.107 31.2067 43.8451 31.0004 43.5911 30.8575C43.353 30.7146 43.1942 30.7067 43.1148 30.8337C43.0355 30.9289 42.8767 31.167 42.6386 31.5481C42.4005 31.9291 42.1226 32.4053 41.8051 32.9768C41.4876 33.5325 41.1543 34.1595 40.805 34.858C40.4716 35.5407 40.162 36.2313 39.8763 36.9298C39.5905 37.6283 39.3524 38.303 39.1619 38.9539C38.9873 39.6047 38.9079 40.1763 38.9238 40.6684C38.9238 40.8906 38.9952 41.097 39.1381 41.2875C39.281 41.4621 39.4477 41.6288 39.6382 41.7876C39.8445 41.9305 40.0668 42.0495 40.3049 42.1448C40.5431 42.24 40.7574 42.3035 40.9479 42.3353C41.2654 42.3829 41.6226 42.2877 42.0195 42.0495C42.4163 41.7955 42.837 41.4542 43.2815 41.0256C43.726 40.5811 44.1785 40.0731 44.6389 39.5016C45.0992 38.93 45.5438 38.3427 45.9724 37.7394C46.1788 38.1045 46.4645 38.4062 46.8297 38.6443C47.1948 38.8665 47.6313 38.9618 48.1394 38.93C48.3457 38.93 48.5759 38.8427 48.8299 38.6681C49.0998 38.4776 49.3221 38.3268 49.4967 38.2157C50.0523 37.8347 50.5524 37.3981 50.9969 36.906C51.4573 36.4138 51.8939 35.9058 52.3066 35.3819Z" fill="white"/>
<path d="M17.4257 57.432V64.2037H15.7979L13.4026 59.99V64.2037H11.7702V57.432H13.4026L15.7979 61.6457V57.432H17.4257ZM21.0209 62.6085L22.4301 57.432H24.258L21.9743 64.2037H20.793L21.0209 62.6085ZM19.7419 57.432L21.1511 62.6085L21.3883 64.2037H20.193L17.9234 57.432H19.7419ZM31.6902 60.1202V61.376H28.2159V60.1202H31.6902ZM28.7601 57.432V64.2037H27.1276V57.432H28.7601ZM32.7878 57.432V64.2037H31.16V57.432H32.7878ZM33.5552 61.7387V61.6411C33.5552 61.2721 33.6079 60.9326 33.7133 60.6225C33.8188 60.3093 33.9738 60.038 34.1784 59.8086C34.3831 59.5791 34.6358 59.4009 34.9365 59.2737C35.2373 59.1435 35.5846 59.0784 35.9784 59.0784C36.3752 59.0784 36.7241 59.1435 37.0248 59.2737C37.3287 59.4009 37.5829 59.5791 37.7876 59.8086C37.9922 60.038 38.1473 60.3093 38.2527 60.6225C38.3581 60.9326 38.4108 61.2721 38.4108 61.6411V61.7387C38.4108 62.1046 38.3581 62.4441 38.2527 62.7573C38.1473 63.0674 37.9922 63.3387 37.7876 63.5712C37.5829 63.8007 37.3302 63.9789 37.0295 64.1061C36.7287 64.2332 36.3814 64.2968 35.9877 64.2968C35.5939 64.2968 35.2451 64.2332 34.9412 64.1061C34.6373 63.9789 34.3831 63.8007 34.1784 63.5712C33.9738 63.3387 33.8188 63.0674 33.7133 62.7573C33.6079 62.4441 33.5552 62.1046 33.5552 61.7387ZM35.1226 61.6411V61.7387C35.1226 61.9279 35.1365 62.1046 35.1644 62.2689C35.1924 62.4333 35.2389 62.5775 35.304 62.7015C35.3691 62.8224 35.4575 62.917 35.5691 62.9852C35.6807 63.0534 35.8202 63.0875 35.9877 63.0875C36.152 63.0875 36.2884 63.0534 36.3969 62.9852C36.5086 62.917 36.5969 62.8224 36.6621 62.7015C36.7272 62.5775 36.7737 62.4333 36.8016 62.2689C36.8295 62.1046 36.8434 61.9279 36.8434 61.7387V61.6411C36.8434 61.4581 36.8295 61.286 36.8016 61.1248C36.7737 60.9605 36.7272 60.8163 36.6621 60.6923C36.5969 60.5651 36.5086 60.4659 36.3969 60.3946C36.2853 60.3233 36.1458 60.2876 35.9784 60.2876C35.814 60.2876 35.676 60.3233 35.5644 60.3946C35.4559 60.4659 35.3691 60.5651 35.304 60.6923C35.2389 60.8163 35.1924 60.9605 35.1644 61.1248C35.1365 61.286 35.1226 61.4581 35.1226 61.6411ZM41.7455 62.7898C41.7455 62.703 41.7161 62.6286 41.6572 62.5666C41.6014 62.5015 41.5021 62.4426 41.3595 62.3899C41.2169 62.3341 41.0169 62.2782 40.7595 62.2224C40.5146 62.1697 40.2836 62.1 40.0665 62.0131C39.8526 61.9263 39.665 61.8209 39.5038 61.6969C39.3425 61.5728 39.2154 61.4256 39.1224 61.255C39.0325 61.0845 38.9875 60.8892 38.9875 60.669C38.9875 60.4551 39.0325 60.2535 39.1224 60.0644C39.2154 59.8722 39.3503 59.7032 39.527 59.5574C39.7069 59.4086 39.9255 59.2923 40.1828 59.2086C40.4402 59.1218 40.7332 59.0784 41.0619 59.0784C41.5145 59.0784 41.9052 59.1482 42.2339 59.2877C42.5626 59.4241 42.8153 59.6163 42.992 59.8644C43.1718 60.1093 43.2617 60.3931 43.2617 60.7155H41.6944C41.6944 60.5884 41.6727 60.4799 41.6293 60.39C41.589 60.3 41.5223 60.2318 41.4293 60.1853C41.3363 60.1357 41.2122 60.1109 41.0572 60.1109C40.9487 60.1109 40.8495 60.1311 40.7595 60.1714C40.6727 60.2117 40.603 60.2675 40.5502 60.3388C40.4975 60.4101 40.4712 60.4938 40.4712 60.5899C40.4712 60.6582 40.4867 60.7202 40.5177 60.776C40.5518 60.8287 40.603 60.8783 40.6712 60.9248C40.7394 60.9682 40.8262 61.0085 40.9316 61.0457C41.037 61.0798 41.1642 61.1109 41.313 61.1388C41.651 61.2008 41.9672 61.2891 42.2618 61.4039C42.5564 61.5186 42.7951 61.6814 42.978 61.8922C43.1641 62.1031 43.2571 62.3868 43.2571 62.7433C43.2571 62.9666 43.2059 63.1728 43.1036 63.3619C43.0013 63.548 42.854 63.7123 42.6618 63.8549C42.4695 63.9944 42.2385 64.103 41.9688 64.1805C41.699 64.258 41.3952 64.2968 41.0572 64.2968C40.5766 64.2968 40.1704 64.2115 39.8387 64.041C39.5069 63.8673 39.2557 63.6503 39.0852 63.3898C38.9178 63.1263 38.834 62.8596 38.834 62.5899H40.2944C40.3006 62.7449 40.3379 62.872 40.4061 62.9712C40.4774 63.0705 40.572 63.1433 40.6898 63.1898C40.8076 63.2363 40.944 63.2596 41.0991 63.2596C41.2417 63.2596 41.3595 63.2394 41.4525 63.1991C41.5486 63.1588 41.6215 63.1046 41.6711 63.0363C41.7207 62.965 41.7455 62.8829 41.7455 62.7898ZM46.643 59.1714V60.2597H43.6106V59.1714H46.643ZM44.2478 57.9203H45.8151V62.5619C45.8151 62.6953 45.8306 62.7991 45.8616 62.8736C45.8926 62.9449 45.9453 62.996 46.0198 63.027C46.0973 63.055 46.1996 63.0689 46.3267 63.0689C46.4166 63.0689 46.4911 63.0674 46.55 63.0643C46.6089 63.0581 46.6647 63.0503 46.7174 63.041V64.1619C46.5841 64.2053 46.4446 64.2378 46.2988 64.2595C46.1531 64.2844 45.9981 64.2968 45.8337 64.2968C45.4989 64.2968 45.212 64.244 44.9733 64.1386C44.7377 64.0332 44.5578 63.8673 44.4338 63.641C44.3098 63.4146 44.2478 63.1201 44.2478 62.7573V57.9203ZM48.922 59.1714V64.2037H47.3499V59.1714H48.922ZM47.2569 57.8738C47.2569 57.6505 47.3375 57.4676 47.4988 57.325C47.66 57.1824 47.8693 57.111 48.1266 57.111C48.384 57.111 48.5933 57.1824 48.7545 57.325C48.9158 57.4676 48.9964 57.6505 48.9964 57.8738C48.9964 58.097 48.9158 58.28 48.7545 58.4226C48.5933 58.5652 48.384 58.6365 48.1266 58.6365C47.8693 58.6365 47.66 58.5652 47.4988 58.4226C47.3375 58.28 47.2569 58.097 47.2569 57.8738ZM51.4288 60.2458V64.2037H49.8614V59.1714H51.3311L51.4288 60.2458ZM51.2428 61.5155L50.8754 61.5248C50.8754 61.1403 50.9219 60.7977 51.0149 60.4969C51.1079 60.1931 51.2397 59.9357 51.4102 59.7249C51.5807 59.514 51.7838 59.3543 52.0195 59.2458C52.2582 59.1342 52.5233 59.0784 52.8148 59.0784C53.0473 59.0784 53.2597 59.1125 53.452 59.1807C53.6473 59.2489 53.8148 59.359 53.9543 59.5109C54.0969 59.6629 54.2054 59.8644 54.2798 60.1155C54.3574 60.3636 54.3961 60.6706 54.3961 61.0364V64.2037H52.8194V61.0318C52.8194 60.8302 52.7915 60.6768 52.7357 60.5713C52.6799 60.4628 52.5993 60.3884 52.4939 60.3481C52.3885 60.3078 52.2598 60.2876 52.1079 60.2876C51.9466 60.2876 51.8102 60.3186 51.6986 60.3807C51.5869 60.4427 51.497 60.5295 51.4288 60.6411C51.3637 60.7496 51.3156 60.8783 51.2846 61.0271C51.2567 61.176 51.2428 61.3387 51.2428 61.5155ZM58.4285 59.1714H59.8517V64.0084C59.8517 64.4735 59.7447 64.8673 59.5308 65.1897C59.3168 65.5153 59.0176 65.7618 58.6331 65.9292C58.2518 66.0998 57.8053 66.185 57.2937 66.185C57.0673 66.185 56.8363 66.1556 56.6007 66.0967C56.365 66.0409 56.1449 65.9571 55.9402 65.8455C55.7356 65.7339 55.5635 65.5959 55.424 65.4316L56.0798 64.5107C56.2069 64.6533 56.3666 64.7743 56.5588 64.8735C56.7511 64.9758 56.9774 65.027 57.2379 65.027C57.4642 65.027 57.6533 64.9866 57.8053 64.906C57.9603 64.8254 58.0781 64.7076 58.1587 64.5526C58.2394 64.4006 58.2797 64.2161 58.2797 63.9991V60.3621L58.4285 59.1714ZM55.0845 61.748V61.6504C55.0845 61.269 55.131 60.9217 55.224 60.6086C55.3201 60.2923 55.4565 60.021 55.6333 59.7946C55.8131 59.5652 56.0302 59.3885 56.2844 59.2644C56.5387 59.1404 56.8255 59.0784 57.1448 59.0784C57.489 59.0784 57.7712 59.1451 57.9913 59.2784C58.2146 59.4086 58.3928 59.5915 58.5262 59.8272C58.6626 60.0628 58.768 60.3388 58.8424 60.6551C58.9199 60.9682 58.9851 61.3062 59.0378 61.669V61.7852C58.9851 62.1263 58.9122 62.4488 58.8192 62.7526C58.7293 63.0534 58.6114 63.3201 58.4657 63.5526C58.32 63.7851 58.137 63.9681 57.9169 64.1014C57.6999 64.2316 57.4394 64.2968 57.1355 64.2968C56.8193 64.2968 56.534 64.2332 56.2798 64.1061C56.0286 63.9789 55.8131 63.8007 55.6333 63.5712C55.4565 63.3418 55.3201 63.072 55.224 62.7619C55.131 62.4519 55.0845 62.1139 55.0845 61.748ZM56.6518 61.6504V61.748C56.6518 61.9372 56.6689 62.1124 56.703 62.2736C56.7402 62.4348 56.796 62.5775 56.8704 62.7015C56.9448 62.8224 57.0363 62.917 57.1448 62.9852C57.2565 63.0534 57.3867 63.0875 57.5355 63.0875C57.7619 63.0875 57.9448 63.0394 58.0843 62.9433C58.2239 62.8472 58.3246 62.7108 58.3866 62.534C58.4487 62.3573 58.475 62.1496 58.4657 61.9108V61.5434C58.4719 61.3387 58.458 61.1589 58.4238 61.0039C58.3897 60.8457 58.3355 60.714 58.2611 60.6086C58.1898 60.5031 58.0936 60.4241 57.9727 60.3714C57.8549 60.3155 57.7123 60.2876 57.5448 60.2876C57.3991 60.2876 57.2704 60.3217 57.1588 60.39C57.0472 60.4582 56.9541 60.5543 56.8797 60.6783C56.8053 60.7992 56.748 60.9434 56.7076 61.1109C56.6704 61.2752 56.6518 61.455 56.6518 61.6504Z" fill="white"/>
</g>
<defs>
<clipPath id="clip0_7_10">
<rect width="71.1211" height="71.1211" fill="white" transform="translate(0.275391 0.275391)"/>
</clipPath>
</defs>
</svg>
