<svg width="72" height="72" viewBox="0 0 72 72" fill="none" xmlns="http://www.w3.org/2000/svg">
<path fill-rule="evenodd" clip-rule="evenodd" d="M60.531 23.2775C60.531 13.5356 52.6337 5.63831 42.8918 5.63831C36.4274 5.63831 30.7751 9.11576 27.7076 14.3021C25.3347 13.2677 22.7148 12.694 19.9609 12.694C9.24492 12.694 0.557861 21.381 0.557861 32.097C0.557861 42.2189 8.30835 50.5306 18.1984 51.4212L18.197 51.5001H57.0032L57.7075 51.4829C65.1737 51.1159 71.1145 44.9461 71.1145 37.3888C71.1145 30.8106 66.6134 25.2837 60.5255 23.7212L60.531 23.2775ZM43.126 19.594C42.9831 19.4829 42.8482 19.4829 42.7212 19.594L42.3878 20.0226C42.2926 20.1655 42.1894 20.3243 42.0782 20.4989C40.6018 22.0388 38.9984 23.6739 37.268 25.4043L32.053 30.6194C32.6087 29.7303 33.2199 28.8175 33.8866 27.8809C34.5692 26.9284 35.3551 25.9123 36.2441 24.8328C36.4981 24.5312 36.6489 24.1978 36.6965 23.8327C36.76 23.4517 36.76 23.0707 36.6965 22.6897C36.6489 22.3087 36.5457 21.9435 36.387 21.5943C36.2441 21.2291 36.0853 20.9196 35.9107 20.6656C35.7361 20.3957 35.5615 20.1893 35.3868 20.0464C35.2281 19.9036 35.1011 19.848 35.0058 19.8798H34.9106C33.0373 20.4195 31.2831 21.1021 29.6479 21.9277C28.0128 22.7532 26.5284 23.666 25.1949 24.6661C23.8614 25.6504 22.6866 26.6744 21.6706 27.738C20.6546 28.7858 19.8211 29.8097 19.1703 30.8099C18.5194 31.7941 18.0749 32.7149 17.8367 33.5721C17.5986 34.4135 17.5827 35.1041 17.7891 35.6439C17.8367 35.8026 17.9558 35.9852 18.1463 36.1916C18.3527 36.3979 18.5908 36.6123 18.8607 36.8345C19.1464 37.0409 19.4401 37.2393 19.7418 37.4298C20.0593 37.6045 20.345 37.7394 20.599 37.8347C20.853 37.9299 21.0515 37.9696 21.1944 37.9537C21.3531 37.922 21.4166 37.8029 21.3849 37.5965C21.3055 37.1044 21.361 36.4932 21.5515 35.7629C21.7579 35.0168 22.0754 34.2072 22.5041 33.334C22.9486 32.4609 23.5042 31.556 24.171 30.6194C24.8377 29.6827 25.5997 28.7699 26.457 27.8809C27.3143 26.9919 28.2588 26.1663 29.2907 25.4043C30.3226 24.6264 31.4259 23.9676 32.6007 23.4279C30.8703 26.0314 29.2431 28.5873 27.7191 31.0956C26.1951 33.588 24.8139 36.0646 23.5756 38.5252C23.5915 39.0809 23.7026 39.6762 23.909 40.3112C24.1313 40.9303 24.3853 41.4701 24.671 41.9305C24.9727 42.3908 25.2743 42.6925 25.5759 42.8354C25.8776 42.9941 26.1236 42.8671 26.3141 42.4543C26.584 41.8987 26.8301 41.351 27.0523 40.8113C27.2904 40.2715 27.5206 39.7397 27.7429 39.2158C28.362 38.1522 29.0764 37.0647 29.886 35.9534C30.6957 34.8422 31.553 33.7309 32.4578 32.6196C33.3786 31.5084 34.3232 30.4209 35.2916 29.3573C36.2758 28.2936 37.2442 27.2697 38.1967 26.2854C37.3871 27.5872 36.5775 28.9604 35.7678 30.405C34.9582 31.8338 34.22 33.2785 33.5532 34.739C32.9023 36.1836 32.3547 37.6124 31.9101 39.0253C31.4656 40.4223 31.1878 41.74 31.0767 42.9782C31.0608 43.1211 31.1084 43.3354 31.2196 43.6212C31.3466 43.9069 31.545 44.2086 31.8149 44.5261C32.1006 44.8436 32.4578 45.1531 32.8865 45.4548C33.331 45.7564 33.8628 46.0104 34.4819 46.2168C34.9582 46.3755 35.2598 46.447 35.3868 46.4311C35.5297 46.4311 35.5853 46.3676 35.5535 46.2406C35.5376 46.1136 35.4821 45.9231 35.3868 45.6691C35.2916 45.4151 35.2519 45.1135 35.2678 44.7642C35.3471 43.1608 35.5694 41.613 35.9345 40.1207C36.2996 38.6125 36.7442 37.1679 37.268 35.7867C37.8078 34.4056 38.3952 33.0959 39.0302 31.8576C39.6811 30.6194 40.324 29.4684 40.959 28.4048C41.6099 27.3411 42.2291 26.3648 42.8164 25.4758C43.4197 24.5709 43.9356 23.7771 44.3643 23.0945C44.4278 23.0151 44.4516 22.8564 44.4357 22.6182C44.4198 22.3801 44.3722 22.1102 44.2928 21.8086C44.2135 21.507 44.1103 21.2053 43.9833 20.9037C43.8563 20.5862 43.7213 20.3163 43.5784 20.0941C43.4356 19.8559 43.2848 19.6892 43.126 19.594ZM52.3066 35.3819L52.9257 34.5485L53.5211 33.7627C53.5687 33.6198 53.5766 33.4928 53.5449 33.3816C53.5131 33.2546 53.4496 33.1673 53.3544 33.1197C53.275 33.0562 53.1718 33.0324 53.0448 33.0483C52.9337 33.0483 52.8226 33.0959 52.7114 33.1911L52.1161 33.9293C51.878 34.2151 51.616 34.5247 51.3303 34.858C51.0445 35.1755 50.7508 35.4851 50.4492 35.7867C50.1635 36.0884 49.8777 36.3583 49.5919 36.5964C49.3221 36.8186 49.0839 36.9853 48.8776 37.0965C48.6553 37.2235 48.5839 37.1917 48.6632 37.0012C48.7426 36.8107 48.8934 36.5488 49.1157 36.2154C49.3379 35.8661 49.5999 35.4772 49.9015 35.0485C50.2031 34.6199 50.473 34.231 50.7111 33.8817C50.9651 33.4848 51.116 33.088 51.1636 32.6911C51.2271 32.2783 51.2033 31.9211 51.0922 31.6195C50.9969 31.302 50.8382 31.0639 50.6159 30.9051C50.4095 30.7305 50.1635 30.6749 49.8777 30.7384C49.7348 30.786 49.5443 30.913 49.3062 31.1194C49.0681 31.3258 48.8141 31.5798 48.5442 31.8814C48.2743 32.1831 47.9965 32.5164 47.7107 32.8816C47.4408 33.2308 47.1789 33.5801 46.9249 33.9293C46.6868 34.2627 46.4725 34.5723 46.282 34.858C46.1073 35.1438 45.9883 35.3581 45.9248 35.501L45.7819 35.8582C45.3533 36.4297 44.9246 36.9933 44.496 37.5489C44.0832 38.1045 43.7022 38.5887 43.353 39.0015C43.0037 39.4142 42.71 39.7397 42.4719 39.9778C42.2338 40.2001 42.083 40.2636 42.0195 40.1683C41.9559 40.0889 41.9956 39.8746 42.1385 39.5254C42.2973 39.1602 42.5036 38.7316 42.7576 38.2395C43.0117 37.7315 43.2974 37.1996 43.6149 36.644C43.9324 36.0725 44.2261 35.5407 44.496 35.0485C44.7659 34.5564 44.9881 34.1357 45.1628 33.7865C45.3533 33.4213 45.4485 33.1991 45.4485 33.1197C45.4326 32.9133 45.3136 32.6514 45.0913 32.3339C44.8849 32.0164 44.6468 31.7306 44.3769 31.4766C44.107 31.2067 43.8451 31.0004 43.5911 30.8575C43.353 30.7146 43.1942 30.7067 43.1148 30.8337C43.0355 30.9289 42.8767 31.167 42.6386 31.5481C42.4005 31.9291 42.1226 32.4053 41.8051 32.9768C41.4876 33.5325 41.1543 34.1595 40.805 34.858C40.4716 35.5407 40.162 36.2313 39.8763 36.9298C39.5905 37.6283 39.3524 38.303 39.1619 38.9539C38.9873 39.6047 38.9079 40.1763 38.9238 40.6684C38.9238 40.8906 38.9952 41.097 39.1381 41.2875C39.281 41.4621 39.4477 41.6288 39.6382 41.7876C39.8445 41.9305 40.0668 42.0495 40.3049 42.1448C40.5431 42.24 40.7574 42.3035 40.9479 42.3353C41.2654 42.3829 41.6226 42.2877 42.0195 42.0495C42.4163 41.7955 42.837 41.4542 43.2815 41.0256C43.726 40.5811 44.1785 40.0731 44.6389 39.5016C45.0992 38.93 45.5438 38.3427 45.9724 37.7394C46.1788 38.1045 46.4645 38.4062 46.8297 38.6443C47.1948 38.8665 47.6313 38.9618 48.1394 38.93C48.3457 38.93 48.5759 38.8427 48.8299 38.6681C49.0998 38.4776 49.3221 38.3268 49.4967 38.2157C50.0523 37.8347 50.5524 37.3981 50.9969 36.906C51.4573 36.4138 51.8939 35.9058 52.3066 35.3819Z" fill="white"/>
</svg>
